<?xml version="1.0" encoding="utf-8"?>
<!-- Generator: Adobe Illustrator 16.0.0, SVG Export Plug-In . SVG Version: 6.00 Build 0)  -->
<!DOCTYPE svg PUBLIC "-//W3C//DTD SVG 1.1//EN" "http://www.w3.org/Graphics/SVG/1.1/DTD/svg11.dtd">
<svg version="1.1" id="Camada_1" xmlns="http://www.w3.org/2000/svg" xmlns:xlink="http://www.w3.org/1999/xlink" x="0px" y="0px"
	 width="750.466px" height="195.792px" viewBox="0 0 750.466 195.792" enable-background="new 0 0 750.466 195.792"
	 xml:space="preserve">
<g>
	<g>
		<path fill-rule="evenodd" clip-rule="evenodd" fill="#FFFFFF" d="M74.113,194.977c0,0,12.802,2.288,11.565-0.804
			c0,0-0.371-0.742-3.648-1.794c-6.556-2.226-12.246-6.679-17.75-11.379C29.338,151.563,24.206,98.563,53.086,62.075
			c0,0,0.371-0.433,0.557-0.68c5.751-7.236,12.863-12.678,20.594-16.265c5.999-2.722,6.184-3.958,6.184-3.958
			c1.793-6.184-21.027-1.175-21.027-1.175c-15.77,4.267-30.427,13.605-41.559,27.644C7.507,80.752,1.632,96.089,0.148,111.612
			c3.092,24.119,14.595,47.001,34.199,63.451C46.283,185.144,59.951,191.761,74.113,194.977z"/>
		<path fill-rule="evenodd" clip-rule="evenodd" fill="#FFFFFF" d="M0.828,74.135c0,0-2.288,12.801,0.742,11.564
			c0,0,0.743-0.371,1.855-3.648c2.165-6.494,6.679-12.245,11.317-17.749C44.243,29.36,97.181,24.227,133.73,53.17
			c0,0,0.371,0.371,0.618,0.495c7.297,5.751,12.678,12.863,16.265,20.594c2.783,5.999,4.02,6.123,4.02,6.123
			c6.123,1.855,1.113-20.965,1.113-20.965c-4.267-15.77-13.605-30.427-27.644-41.559C115.054,7.467,99.716,1.654,84.194,0.17
			C60.075,3.262,37.192,14.765,20.68,34.369C10.6,46.305,3.982,59.973,0.828,74.135z"/>
		<path fill-rule="evenodd" clip-rule="evenodd" fill="#FFFFFF" d="M121.609,0.788c0,0-12.802-2.226-11.503,0.804
			c0,0,0.371,0.742,3.587,1.793c6.556,2.226,12.245,6.741,17.811,11.379c34.88,29.499,40.075,82.438,11.132,118.926
			c0,0-0.371,0.432-0.495,0.68c-5.751,7.235-12.864,12.678-20.656,16.265c-5.999,2.722-6.123,4.02-6.123,4.02
			c-1.855,6.123,21.027,1.113,21.027,1.113c15.708-4.267,30.365-13.605,41.497-27.644c10.39-13.05,16.203-28.387,17.749-43.909
			c-3.092-24.119-14.657-47.001-34.2-63.513C149.438,10.622,135.833,4.004,121.609,0.788z"/>
		<path fill-rule="evenodd" clip-rule="evenodd" fill="#FFFFFF" d="M194.956,121.631c0,0,2.288-12.802-0.804-11.504
			c0,0-0.68,0.372-1.793,3.587c-2.165,6.556-6.679,12.246-11.379,17.812c-29.438,34.88-82.438,40.013-118.926,11.132
			c0,0-0.433-0.371-0.618-0.495c-7.297-5.751-12.74-12.925-16.327-20.655c-2.721-5.999-3.958-6.123-3.958-6.123
			c-6.185-1.855-1.175,21.027-1.175,21.027c4.329,15.708,13.605,30.427,27.644,41.497c13.111,10.39,28.448,16.202,43.971,17.748
			c24.119-3.092,46.939-14.656,63.452-34.199C185.122,149.46,191.74,135.792,194.956,121.631z"/>
	</g>
	<g>
		<path fill="#FFFFFF" d="M228.511,66.695h22.706c2.222,0,3.188,0.097,4.251,0.676c1.256,0.725,2.125,2.125,2.125,3.961
			c0,1.835-0.87,3.237-2.125,3.961c-1.063,0.58-2.029,0.676-4.251,0.676h-22.706v20.773h27.633c2.222,0,3.188,0.097,4.251,0.676
			c1.256,0.725,2.125,2.125,2.125,3.961s-0.87,3.236-2.125,3.961c-1.063,0.58-2.029,0.677-4.251,0.677h-31.691
			c-1.546,0-3.381,0-4.879-1.498c-1.498-1.497-1.498-3.333-1.498-4.879V43.604c0-1.546,0-3.382,1.498-4.879
			c1.498-1.498,3.333-1.498,4.879-1.498h31.691c2.222,0,3.188,0.097,4.251,0.676c1.256,0.725,2.125,2.125,2.125,3.961
			s-0.87,3.237-2.125,3.961c-1.063,0.58-2.029,0.676-4.251,0.676h-27.633V66.695z"/>
		<path fill="#FFFFFF" d="M303.243,86.695c0-3.092-0.773-5.507-2.706-7.15c-1.739-1.546-4.058-2.416-7.488-2.898l-8.164-1.159
			c-5.556-0.821-9.759-2.561-12.995-5.556c-3.43-3.14-5.073-7.585-5.073-13.188c0-11.981,8.696-20.097,22.995-20.097
			c6.522,0,10.483,1.063,16.184,4.058c2.415,1.256,4.202,3.044,4.202,5.266c0,1.111-0.386,2.222-1.207,3.188
			c-0.773,0.917-1.788,1.498-3.188,1.498c-1.111,0-2.802-0.628-4.203-1.498c-4.106-2.512-7.343-3.382-12.174-3.382
			c-8.116,0-12.464,4.396-12.464,10.676c0,2.512,0.676,4.831,2.512,6.377c1.739,1.546,3.768,2.512,7.536,3.092l8.212,1.256
			c6.28,0.966,9.759,2.416,12.754,5.121c3.672,3.381,5.604,8.116,5.604,14.106c0,12.657-10.241,20.194-24.734,20.194
			c-8.261,0-13.43-1.595-18.502-4.638c-3.575-2.126-4.879-3.575-4.879-6.087c0-1.159,0.531-2.512,1.449-3.43
			c0.87-0.87,1.932-1.256,3.043-1.256c1.353,0,2.561,0.435,4.444,1.739c4.638,3.188,8.696,4.396,14.638,4.396
			C298.122,97.323,303.243,93.458,303.243,86.695z"/>
		<path fill="#FFFFFF" d="M361.356,45.826c-1.063,0.58-2.029,0.676-4.251,0.676h-12.947v52.802c0,2.561-0.048,3.382-0.772,4.734
			c-0.773,1.4-2.367,2.367-4.444,2.367c-2.078,0-3.672-0.967-4.445-2.367c-0.725-1.353-0.772-2.174-0.772-4.734V46.502h-12.947
			c-2.222,0-3.188-0.097-4.251-0.676c-1.256-0.725-2.126-2.125-2.126-3.961s0.87-3.237,2.126-3.961
			c1.063-0.58,2.029-0.676,4.251-0.676h36.329c2.222,0,3.188,0.097,4.251,0.676c1.256,0.725,2.126,2.125,2.126,3.961
			S362.612,45.101,361.356,45.826z"/>
		<path fill="#FFFFFF" d="M367.972,82.831V43.941c0-2.56,0.049-3.381,0.773-4.734c0.772-1.401,2.367-2.367,4.444-2.367
			s3.672,0.966,4.444,2.367c0.725,1.353,0.773,2.174,0.773,4.734v38.406c0,9.227,5.604,14.976,14.202,14.976
			c8.6,0,14.203-5.749,14.203-14.976V43.941c0-2.56,0.049-3.381,0.773-4.734c0.772-1.401,2.367-2.367,4.444-2.367
			s3.672,0.966,4.444,2.367c0.725,1.353,0.773,2.174,0.773,4.734v38.889c0,14.203-10.629,23.769-24.639,23.769
			C378.601,106.599,367.972,97.034,367.972,82.831z"/>
		<path fill="#FFFFFF" d="M434.636,37.227h17.826c8.646,0,14.976,2.898,19.613,8.744c4.831,6.184,5.072,13.43,5.072,25.652
			c0,12.223-0.338,19.565-5.169,25.749c-4.59,5.894-10.87,8.647-19.517,8.647h-17.826c-1.546,0-3.382,0-4.88-1.498
			c-1.497-1.497-1.497-3.333-1.497-4.879V43.604c0-1.546,0-3.382,1.497-4.879C431.254,37.227,433.09,37.227,434.636,37.227z
			 M438.694,96.744h12.561c4.976,0,8.938-1.353,11.836-4.686c3.43-3.865,3.623-10.242,3.623-20.435
			c0-10.193-0.193-16.57-3.623-20.435c-2.898-3.333-6.86-4.686-11.836-4.686h-12.561V96.744z"/>
		<path fill="#FFFFFF" d="M492.75,92.203l-3.431,9.227c-0.869,2.319-1.304,3.188-2.271,3.962c-0.772,0.628-1.738,1.015-2.85,1.015
			c-1.449,0-2.898-0.58-3.816-1.546c-1.98-2.029-1.353-4.203-0.339-6.909l21.063-56.087c0.725-1.98,1.256-2.802,2.077-3.575
			c1.015-0.966,2.174-1.449,3.816-1.449s2.802,0.483,3.816,1.449c0.821,0.773,1.353,1.594,2.077,3.575l21.063,56.087
			c1.014,2.706,1.643,4.879-0.339,6.909c-0.918,0.966-2.367,1.546-3.816,1.546c-1.111,0-2.077-0.387-2.85-1.015
			c-0.967-0.773-1.401-1.643-2.271-3.962l-3.431-9.227H492.75z M507,53.217l-11.015,30.097h22.029L507,53.217z"/>
		<path fill="#FFFFFF" d="M593.324,90.463c-1.159,2.464-2.608,3.865-5.313,3.865c-2.706,0-4.155-1.401-5.362-3.865l-14.59-30.435
			v39.275c0,2.561-0.049,3.382-0.773,4.734c-0.772,1.4-2.367,2.367-4.444,2.367s-3.671-0.967-4.444-2.367
			c-0.725-1.353-0.772-2.174-0.772-4.734V43.265c0-1.691,0.241-3.526,1.546-4.879c1.111-1.111,2.512-1.546,3.816-1.546
			c1.207,0,2.271,0.29,2.946,0.676c0.821,0.483,1.885,1.787,2.561,3.14l19.518,39.807l19.42-39.807
			c0.677-1.353,1.739-2.657,2.561-3.14c0.676-0.387,1.739-0.676,2.946-0.676c1.305,0,2.706,0.435,3.816,1.546
			c1.305,1.353,1.546,3.188,1.546,4.879v56.039c0,2.561-0.048,3.382-0.772,4.734c-0.773,1.4-2.367,2.367-4.444,2.367
			s-3.672-0.967-4.444-2.367c-0.725-1.353-0.773-2.174-0.773-4.734V60.029L593.324,90.463z"/>
		<path fill="#FFFFFF" d="M637.282,92.203l-3.431,9.227c-0.869,2.319-1.304,3.188-2.271,3.962c-0.772,0.628-1.738,1.015-2.85,1.015
			c-1.449,0-2.898-0.58-3.816-1.546c-1.98-2.029-1.353-4.203-0.339-6.909l21.063-56.087c0.725-1.98,1.256-2.802,2.077-3.575
			c1.015-0.966,2.174-1.449,3.816-1.449s2.802,0.483,3.816,1.449c0.821,0.773,1.353,1.594,2.077,3.575l21.063,56.087
			c1.014,2.706,1.643,4.879-0.339,6.909c-0.918,0.966-2.367,1.546-3.816,1.546c-1.11,0-2.077-0.387-2.85-1.015
			c-0.967-0.773-1.401-1.643-2.271-3.962l-3.431-9.227H637.282z M651.533,53.217l-11.015,30.097h22.029L651.533,53.217z"/>
		<path fill="#FFFFFF" d="M694.427,104.039c-0.772,1.4-2.367,2.367-4.444,2.367s-3.671-0.967-4.444-2.367
			c-0.725-1.353-0.772-2.174-0.772-4.734V43.941c0-2.56,0.048-3.381,0.772-4.734c0.773-1.401,2.367-2.367,4.444-2.367
			s3.672,0.966,4.444,2.367c0.725,1.353,0.773,2.174,0.773,4.734v55.363C695.201,101.865,695.152,102.686,694.427,104.039z"/>
		<path fill="#FFFFFF" d="M740.127,86.695c0-3.092-0.772-5.507-2.705-7.15c-1.739-1.546-4.058-2.416-7.487-2.898l-8.165-1.159
			c-5.556-0.821-9.758-2.561-12.995-5.556c-3.43-3.14-5.072-7.585-5.072-13.188c0-11.981,8.695-20.097,22.995-20.097
			c6.521,0,10.483,1.063,16.184,4.058c2.416,1.256,4.203,3.044,4.203,5.266c0,1.111-0.387,2.222-1.208,3.188
			c-0.772,0.917-1.787,1.498-3.188,1.498c-1.11,0-2.802-0.628-4.202-1.498c-4.106-2.512-7.344-3.382-12.175-3.382
			c-8.115,0-12.464,4.396-12.464,10.676c0,2.512,0.677,4.831,2.513,6.377c1.739,1.546,3.768,2.512,7.536,3.092l8.213,1.256
			c6.28,0.966,9.758,2.416,12.753,5.121c3.672,3.381,5.604,8.116,5.604,14.106c0,12.657-10.242,20.194-24.734,20.194
			c-8.261,0-13.431-1.595-18.503-4.638c-3.574-2.126-4.879-3.575-4.879-6.087c0-1.159,0.531-2.512,1.449-3.43
			c0.869-0.87,1.933-1.256,3.044-1.256c1.353,0,2.56,0.435,4.444,1.739c4.638,3.188,8.695,4.396,14.638,4.396
			C735.007,97.323,740.127,93.458,740.127,86.695z"/>
	</g>
	<g>
		<path fill="#FFFFFF" d="M243.323,160.228c-0.784,1.666-1.764,2.613-3.593,2.613c-1.83,0-2.81-0.947-3.626-2.613l-9.866-20.581
			v26.56c0,1.731-0.033,2.287-0.522,3.201c-0.523,0.948-1.601,1.602-3.005,1.602c-1.405,0-2.483-0.653-3.006-1.602
			c-0.49-0.914-0.522-1.47-0.522-3.201V128.31c0-1.143,0.163-2.385,1.045-3.299c0.751-0.752,1.699-1.046,2.581-1.046
			c0.817,0,1.536,0.196,1.993,0.457c0.555,0.327,1.274,1.209,1.731,2.124l13.198,26.919l13.133-26.919
			c0.458-0.915,1.176-1.797,1.731-2.124c0.458-0.261,1.176-0.457,1.993-0.457c0.882,0,1.83,0.294,2.581,1.046
			c0.882,0.914,1.045,2.156,1.045,3.299v37.896c0,1.731-0.033,2.287-0.523,3.201c-0.522,0.948-1.601,1.602-3.005,1.602
			s-2.483-0.653-3.005-1.602c-0.49-0.914-0.523-1.47-0.523-3.201v-26.56L243.323,160.228z"/>
		<path fill="#FFFFFF" d="M333,155.066v-26.298c0-1.731,0.032-2.287,0.522-3.202c0.522-0.947,1.601-1.601,3.006-1.601
			c1.404,0,2.482,0.653,3.005,1.601c0.49,0.915,0.523,1.471,0.523,3.202v25.972c0,6.24,3.789,10.127,9.604,10.127
			s9.604-3.887,9.604-10.127v-25.972c0-1.731,0.033-2.287,0.522-3.202c0.523-0.947,1.602-1.601,3.006-1.601
			c1.405,0,2.483,0.653,3.006,1.601c0.49,0.915,0.522,1.471,0.522,3.202v26.298c0,9.605-7.188,16.073-16.661,16.073
			S333,164.671,333,155.066z"/>
		<path fill="#FFFFFF" d="M439.11,166.207V128.54c0-1.046,0-2.287,1.013-3.3s2.254-1.013,3.3-1.013h13.721
			c8.82,0,14.439,5.685,14.439,13.59c0,6.632-4.019,10.879-9.213,12.35l8.331,14.537c0.816,1.438,1.078,2.025,1.11,2.907
			c0.033,1.144-0.522,2.189-1.731,2.908c-0.588,0.359-1.273,0.49-1.895,0.49c-1.764,0-2.581-1.242-3.495-2.875l-9.703-16.988h-8.82
			v15.061c0,1.731-0.033,2.287-0.523,3.201c-0.522,0.948-1.601,1.602-3.005,1.602c-1.405,0-2.483-0.653-3.006-1.602
			C439.142,168.494,439.11,167.938,439.11,166.207z M446.167,130.5v14.636h10.454c4.704,0,7.905-2.679,7.905-7.253
			c0-4.606-3.201-7.383-7.905-7.383H446.167z"/>
		<path fill="#FFFFFF" d="M549.957,169.408c-0.522,0.948-1.601,1.602-3.005,1.602c-1.405,0-2.483-0.653-3.006-1.602
			c-0.49-0.914-0.522-1.47-0.522-3.201v-37.438c0-1.731,0.032-2.287,0.522-3.202c0.522-0.947,1.601-1.601,3.006-1.601
			c1.404,0,2.482,0.653,3.005,1.601c0.49,0.915,0.523,1.471,0.523,3.202v37.438C550.48,167.938,550.447,168.494,549.957,169.408z"/>
		<path fill="#FFFFFF" d="M627.024,128.572c3.006-3.006,6.926-4.737,11.989-4.737c5.848,0,9.344,1.765,12.186,4.803
			c2.614,2.81,3.562,5.815,3.562,7.481c0,1.208-0.294,1.992-0.947,2.646c-0.687,0.653-1.471,0.98-2.45,0.98
			c-0.883,0-1.602-0.294-2.091-0.687c-0.752-0.588-1.209-1.437-1.731-2.646c-1.699-3.986-4.28-6.306-8.658-6.306
			c-2.744,0-4.998,1.078-6.696,2.908c-2.45,2.646-2.777,5.619-2.777,14.472c0,8.854,0.327,11.826,2.777,14.473
			c1.698,1.829,3.952,2.907,6.696,2.907c4.378,0,6.959-2.319,8.658-6.305c0.522-1.209,0.979-2.059,1.731-2.646
			c0.489-0.392,1.208-0.686,2.091-0.686c0.979,0,1.764,0.326,2.45,0.979c0.653,0.653,0.947,1.438,0.947,2.646
			c0,1.666-0.947,4.672-3.562,7.481c-2.842,3.038-6.338,4.802-12.186,4.802c-5.063,0-8.983-1.731-11.989-4.736
			c-4.509-4.509-4.672-9.147-4.672-18.916C622.352,137.719,622.515,133.081,627.024,128.572z"/>
		<path fill="#FFFFFF" d="M732.872,169.408c-0.522,0.948-1.601,1.602-3.005,1.602c-1.405,0-2.483-0.653-3.006-1.602
			c-0.49-0.914-0.522-1.47-0.522-3.201v-37.438c0-1.731,0.032-2.287,0.522-3.202c0.522-0.947,1.601-1.601,3.006-1.601
			c1.404,0,2.482,0.653,3.005,1.601c0.49,0.915,0.523,1.471,0.523,3.202v37.438C733.395,167.938,733.362,168.494,732.872,169.408z"
			/>
	</g>
</g>
</svg>
